<svg width="18" height="18" viewBox="0 0 18 18" fill="none" xmlns="http://www.w3.org/2000/svg">
<path fill-rule="evenodd" clip-rule="evenodd" d="M6.99293 11.6724C10.0671 11.6724 12.6946 12.1382 12.6946 13.999C12.6946 15.8599 10.0846 16.339 6.99293 16.339C3.91793 16.339 1.29126 15.8774 1.29126 14.0157C1.29126 12.154 3.90043 11.6724 6.99293 11.6724Z" stroke="white" stroke-width="1.5" stroke-linecap="round" stroke-linejoin="round"/>
<path fill-rule="evenodd" clip-rule="evenodd" d="M6.99289 9.01652C4.97456 9.01652 3.33789 7.38069 3.33789 5.36236C3.33789 3.34402 4.97456 1.70819 6.99289 1.70819C9.01039 1.70819 10.6471 3.34402 10.6471 5.36236C10.6546 7.37319 9.02956 9.00902 7.01872 9.01652H6.99289Z" stroke="white" stroke-width="1.5" stroke-linecap="round" stroke-linejoin="round"/>
<path d="M12.736 8.06802C14.0701 7.88052 15.0976 6.73552 15.1001 5.34969C15.1001 3.98385 14.1043 2.85052 12.7985 2.63635" stroke="white" stroke-width="1.5" stroke-linecap="round" stroke-linejoin="round"/>
<path d="M14.4962 11.2769C15.7887 11.4694 16.6912 11.9227 16.6912 12.856C16.6912 13.4985 16.2662 13.9152 15.5795 14.176" stroke="white" stroke-width="1.5" stroke-linecap="round" stroke-linejoin="round"/>
</svg>
