<svg width="20" height="16" viewBox="0 0 20 16" fill="none" xmlns="http://www.w3.org/2000/svg">
<path d="M14.9064 7.08057C16.0689 6.91723 16.9639 5.92056 16.9664 4.71306C16.9664 3.52306 16.0989 2.5364 14.9614 2.34973" stroke="white" stroke-width="1.5" stroke-linecap="round" stroke-linejoin="round"/>
<path d="M16.4404 9.87524C17.5663 10.0436 18.3521 10.4377 18.3521 11.2502C18.3521 11.8094 17.9821 12.1727 17.3838 12.4011" stroke="white" stroke-width="1.5" stroke-linecap="round" stroke-linejoin="round"/>
<path fill-rule="evenodd" clip-rule="evenodd" d="M9.90553 10.2198C7.2272 10.2198 4.9397 10.6256 4.9397 12.2465C4.9397 13.8665 7.21303 14.284 9.90553 14.284C12.5839 14.284 14.8705 13.8823 14.8705 12.2606C14.8705 10.639 12.598 10.2198 9.90553 10.2198Z" stroke="white" stroke-width="1.5" stroke-linecap="round" stroke-linejoin="round"/>
<path fill-rule="evenodd" clip-rule="evenodd" d="M9.90555 7.90656C11.663 7.90656 13.088 6.4824 13.088 4.72406C13.088 2.96656 11.663 1.54156 9.90555 1.54156C8.14805 1.54156 6.72305 2.96656 6.72305 4.72406C6.71638 6.47573 8.13055 7.90073 9.88221 7.90656H9.90555Z" stroke="white" stroke-width="1.5" stroke-linecap="round" stroke-linejoin="round"/>
<path d="M4.90399 7.08057C3.74066 6.91723 2.84649 5.92056 2.84399 4.71306C2.84399 3.52306 3.71149 2.5364 4.84899 2.34973" stroke="white" stroke-width="1.5" stroke-linecap="round" stroke-linejoin="round"/>
<path d="M3.36992 9.87524C2.24409 10.0436 1.45825 10.4377 1.45825 11.2502C1.45825 11.8094 1.82825 12.1727 2.42659 12.4011" stroke="white" stroke-width="1.5" stroke-linecap="round" stroke-linejoin="round"/>
</svg>
