<svg width="20" height="24" viewBox="0 0 20 24" fill="none" xmlns="http://www.w3.org/2000/svg">
<path d="M16.3573 12.7284C16.3899 16.2534 19.4499 17.4266 19.4837 17.4416C19.4578 17.5241 18.9949 19.1133 17.8717 20.7545C16.9009 22.1735 15.8931 23.5873 14.3059 23.6169C12.7462 23.6454 12.2447 22.6918 10.4614 22.6918C8.67862 22.6918 8.12156 23.5873 6.645 23.6454C5.11275 23.7035 3.94593 22.1107 2.967 20.6972C0.966746 17.8052 -0.561942 12.525 1.49062 8.96078C2.51025 7.19078 4.33275 6.07009 6.31068 6.04121C7.81518 6.01253 9.23531 7.05334 10.155 7.05334C11.0741 7.05334 12.7999 5.80159 14.6141 5.98534C15.3737 6.01703 17.5056 6.29209 18.8745 8.29609C18.7644 8.36453 16.3309 9.78128 16.3573 12.7284ZM13.4261 4.07228C14.2395 3.08771 14.787 1.71671 14.6377 0.353027C13.4651 0.40009 12.0472 1.13434 11.2063 2.11853C10.4526 2.98984 9.79256 4.38484 9.9705 5.72153C11.2776 5.82278 12.6126 5.0574 13.4261 4.07228Z" fill="black"/>
</svg>
