<svg width="16" height="16" viewBox="0 0 16 16" fill="none" xmlns="http://www.w3.org/2000/svg">
<path d="M12.1667 1.33333C12.1667 0.873096 12.5398 0.5 13 0.5C13.4602 0.5 13.8333 0.873096 13.8333 1.33333V4C13.8333 4.46024 13.4602 4.83333 13 4.83333H10.407C9.9468 4.83333 9.5737 4.46024 9.5737 4C9.5737 3.53976 9.9468 3.16667 10.407 3.16667H10.9779C10.0734 2.53389 8.98414 2.16667 7.81455 2.16667C4.71732 2.16667 2.16667 4.75602 2.16667 8C2.16667 8.46024 1.79357 8.83333 1.33333 8.83333C0.873096 8.83333 0.5 8.46024 0.5 8C0.5 3.88018 3.75283 0.5 7.81455 0.5C9.44769 0.5 10.9527 1.04877 12.1667 1.97156V1.33333Z" fill="white"/>
<path d="M3.83333 14.6667C3.83333 15.1269 3.46024 15.5 3 15.5C2.53976 15.5 2.16667 15.1269 2.16667 14.6667V12C2.16667 11.5398 2.53976 11.1667 3 11.1667H5.59296C6.0532 11.1667 6.42629 11.5398 6.42629 12C6.42629 12.4602 6.0532 12.8333 5.59296 12.8333H5.02212C5.92658 13.4661 7.01586 13.8333 8.18545 13.8333C11.2827 13.8333 13.8333 11.244 13.8333 8C13.8333 7.53976 14.2064 7.16667 14.6667 7.16667C15.1269 7.16667 15.5 7.53976 15.5 8C15.5 12.1198 12.2472 15.5 8.18545 15.5C6.55231 15.5 5.04728 14.9512 3.83333 14.0284V14.6667Z" fill="white"/>
</svg>
