<svg width="202" height="49" viewBox="0 0 202 49" fill="none" xmlns="http://www.w3.org/2000/svg">
<g clip-path="url(#clip0_53_17442)">
<path d="M12.7334 15.042C15.8155 14.1583 16.1843 14.0671 17.4119 13.7736C18.5526 13.5002 19.2152 13.515 19.6659 13.5564C20.2616 13.61 20.7214 13.7512 21.2375 14.0372C21.7593 14.3265 22.1169 14.6384 22.478 15.1152C22.7519 15.4755 23.1169 16.034 23.4882 17.1418C23.8911 18.3429 24.0093 18.704 24.8918 21.7815C25.7755 24.8636 25.8667 25.2324 26.1602 26.46C26.4336 27.6007 26.4188 28.2633 26.3774 28.714C26.3238 29.3097 26.1826 29.7695 25.8966 30.2855C25.6073 30.8074 25.2954 31.165 24.8186 31.526C24.4583 31.8 23.8998 32.165 22.792 32.5363C21.5909 32.9392 21.2298 33.0574 18.1523 33.9398C15.0703 34.8236 14.7014 34.9147 13.4738 35.2082C12.3331 35.4817 11.6705 35.4669 11.2198 35.4254C10.6242 35.3719 10.1643 35.2307 9.64827 34.9447C9.12645 34.6554 8.7688 34.3435 8.40778 33.8667C8.13379 33.5064 7.76882 32.9479 7.39753 31.8401C6.99461 30.639 6.87643 30.2779 5.99396 27.2004C5.1102 24.1183 5.01906 23.7495 4.72557 22.5219C4.45213 21.3812 4.46695 20.7186 4.50837 20.2679C4.56189 19.6722 4.7031 19.2124 4.98914 18.6963C5.27838 18.1745 5.59032 17.8169 6.06709 17.4559C6.4274 17.1819 6.98594 16.8169 8.0937 16.4456C9.29029 16.044 9.65139 15.9258 12.7334 15.042ZM12.1378 12.9648C9.00619 13.8628 8.61805 13.9887 7.40344 14.3955C6.19334 14.801 5.40758 15.2409 4.75902 15.7341C4.0828 16.2498 3.55086 16.8266 3.09579 17.6544C2.63491 18.479 2.42766 19.2358 2.34733 20.078C2.27407 20.8939 2.31613 21.7889 2.61349 23.03C2.91344 24.2801 3.01233 24.676 3.91031 27.8076C4.80828 30.9392 4.93421 31.3273 5.34101 32.542C5.74652 33.7521 6.18639 34.5378 6.67958 35.1864C7.19532 35.8626 7.7721 36.3945 8.59992 36.8496C9.42323 37.306 10.1813 37.5177 11.0223 37.5936C11.8381 37.6668 12.7331 37.6248 13.9742 37.3274C15.2198 37.0287 15.6157 36.9299 18.7473 36.0319C21.8789 35.1339 22.267 35.008 23.4817 34.6012C24.6918 34.1957 25.4775 33.7558 26.1261 33.2626C26.7991 32.7527 27.3297 32.1714 27.7861 31.3481C28.2425 30.5248 28.4542 29.7667 28.53 28.9257C28.6033 28.1099 28.5613 27.2149 28.2639 25.9738C27.9652 24.7282 27.8663 24.3323 26.9684 21.2007C26.0704 18.0691 25.9445 17.6809 25.5377 16.4663C25.1322 15.2562 24.6923 14.4705 24.1991 13.8219C23.6956 13.1373 23.1188 12.6054 22.291 12.1503C21.4677 11.6939 20.7096 11.4822 19.8686 11.4063C19.0528 11.3331 18.1578 11.3751 16.9167 11.6725C15.6653 11.9679 15.2694 12.0668 12.1378 12.9648Z" fill="#8AA8F5"/>
<path d="M13.7464 18.5747C10.4752 19.5127 8.58218 22.9277 9.52021 26.199C10.4582 29.4703 13.8732 31.3633 17.1445 30.4253C20.4158 29.4872 22.3088 26.0722 21.3708 22.8009C20.4327 19.5296 17.0177 17.6367 13.7464 18.5747ZM16.5476 28.3435C14.4253 28.9521 12.2105 27.7244 11.6019 25.6021C10.9934 23.4798 12.2211 21.265 14.3434 20.6564C16.4657 20.0479 18.6805 21.2756 19.289 23.3979C19.8976 25.5201 18.6699 27.735 16.5476 28.3435Z" fill="#8AA8F5"/>
</g>
<g clip-path="url(#clip1_53_17442)">
<path d="M15.5341 14.6614C18.7402 14.6903 19.1198 14.7077 20.3802 14.7754C21.5515 14.8375 22.1825 15.0401 22.6029 15.2079C23.1588 15.4286 23.5595 15.6947 23.9729 16.1156C24.391 16.5413 24.6452 16.942 24.8558 17.5018C25.016 17.9251 25.2071 18.5643 25.2482 19.7319C25.293 20.998 25.3037 21.3778 25.2748 24.5793C25.2459 27.7854 25.2284 28.1649 25.1608 29.4253C25.0987 30.5967 24.8961 31.2277 24.7282 31.6481C24.5076 32.2039 24.2415 32.6046 23.8205 33.018C23.3949 33.4361 22.9941 33.6903 22.4344 33.9009C22.0111 34.0612 21.3718 34.2523 20.2042 34.2933C18.9381 34.3382 18.5583 34.3488 15.3569 34.3199C12.1508 34.291 11.7712 34.2735 10.5108 34.2059C9.33949 34.1438 8.70847 33.9412 8.2881 33.7734C7.73225 33.5527 7.33151 33.2866 6.9181 32.8657C6.50004 32.44 6.24583 32.0393 6.03524 31.4795C5.87499 31.0562 5.68387 30.417 5.64283 29.2493C5.59799 27.9833 5.58735 27.6035 5.61621 24.402C5.64512 21.1959 5.6626 20.8164 5.73021 19.556C5.79234 18.3846 5.99491 17.7536 6.16277 17.3332C6.38341 16.7774 6.64954 16.3766 7.07047 15.9632C7.49613 15.5452 7.89687 15.291 8.45661 15.0804C8.87994 14.9201 9.51919 14.729 10.6868 14.688C11.9482 14.6431 12.328 14.6325 15.5341 14.6614ZM15.5536 12.5005C12.2959 12.4711 11.888 12.4815 10.6078 12.5262C9.33239 12.571 8.454 12.7693 7.692 13.0578C6.89705 13.36 6.22309 13.7618 5.55145 14.426C4.87517 15.0856 4.46133 15.7522 4.14487 16.5369C3.84268 17.2983 3.62858 18.1682 3.56084 19.4427C3.49301 20.7265 3.47527 21.1342 3.4459 24.3918C3.41654 27.6495 3.42692 28.0574 3.47164 29.3376C3.51639 30.613 3.71473 31.4914 4.00319 32.2534C4.30541 33.0484 4.70716 33.7223 5.37145 34.394C6.03104 35.0656 6.69761 35.4841 7.48233 35.7959C8.2437 36.0981 9.11368 36.3122 10.3881 36.3799C11.6673 36.4477 12.0749 36.4654 15.3326 36.4948C18.5903 36.5242 18.9982 36.5138 20.2783 36.4691C21.5538 36.4243 22.4322 36.226 23.1942 35.9375C23.9844 35.6399 24.6584 35.2335 25.33 34.5739C26.0016 33.9143 26.4201 33.2477 26.7319 32.463C27.0341 31.7017 27.2482 30.8317 27.3159 29.5572C27.3837 28.2781 27.4015 27.8704 27.4308 24.6128C27.4602 21.3551 27.4498 20.9471 27.4051 19.667C27.3603 18.3916 27.162 17.5132 26.8735 16.7512C26.5854 15.9517 26.1837 15.2777 25.5194 14.6061C24.8598 13.9345 24.1932 13.5159 23.4085 13.2042C22.6471 12.902 21.7772 12.6879 20.5027 12.6201C19.2189 12.5476 18.8113 12.5299 15.5536 12.5005Z" fill="white"/>
<path d="M15.501 18.3362C12.098 18.3055 9.31227 21.0415 9.28159 24.4445C9.25092 27.8474 11.9869 30.6332 15.3898 30.6638C18.7928 30.6945 21.5785 27.9586 21.6092 24.5556C21.6399 21.1526 18.904 18.3669 15.501 18.3362ZM15.4094 28.4983C13.2016 28.4784 11.4272 26.6717 11.4471 24.464C11.467 22.2563 13.2737 20.4818 15.4814 20.5017C17.6892 20.5216 19.4636 22.3283 19.4437 24.5361C19.4238 26.7438 17.6171 28.5182 15.4094 28.4983Z" fill="white"/>
<path d="M23.3498 18.1632C23.3426 18.96 22.69 19.5964 21.8978 19.5892C21.101 19.582 20.4646 18.9294 20.4718 18.1372C20.479 17.3404 21.1316 16.7041 21.9237 16.7112C22.7159 16.7184 23.3569 17.371 23.3498 18.1632Z" fill="white"/>
</g>
<path d="M43.6707 18.1V32H41.3907V18.1H43.6707ZM52.2242 20.8C53.0909 20.8 53.8642 20.98 54.5442 21.34C55.2375 21.7 55.7775 22.2333 56.1642 22.94C56.5509 23.6467 56.7442 24.5 56.7442 25.5V32H54.4842V25.84C54.4842 24.8533 54.2375 24.1 53.7442 23.58C53.2509 23.0467 52.5775 22.78 51.7242 22.78C50.8709 22.78 50.1909 23.0467 49.6842 23.58C49.1909 24.1 48.9442 24.8533 48.9442 25.84V32H46.6642V20.98H48.9442V22.24C49.3175 21.7867 49.7909 21.4333 50.3642 21.18C50.9509 20.9267 51.5709 20.8 52.2242 20.8ZM63.6525 32.18C62.7858 32.18 62.0058 32.0267 61.3125 31.72C60.6325 31.4 60.0925 30.9733 59.6925 30.44C59.2925 29.8933 59.0791 29.2867 59.0525 28.62H61.4125C61.4525 29.0867 61.6725 29.48 62.0725 29.8C62.4858 30.1067 62.9991 30.26 63.6125 30.26C64.2525 30.26 64.7458 30.14 65.0925 29.9C65.4525 29.6467 65.6325 29.3267 65.6325 28.94C65.6325 28.5267 65.4325 28.22 65.0325 28.02C64.6458 27.82 64.0258 27.6 63.1725 27.36C62.3458 27.1333 61.6725 26.9133 61.1525 26.7C60.6325 26.4867 60.1791 26.16 59.7925 25.72C59.4191 25.28 59.2325 24.7 59.2325 23.98C59.2325 23.3933 59.4058 22.86 59.7525 22.38C60.0991 21.8867 60.5925 21.5 61.2325 21.22C61.8858 20.94 62.6325 20.8 63.4725 20.8C64.7258 20.8 65.7325 21.12 66.4925 21.76C67.2658 22.3867 67.6791 23.2467 67.7325 24.34H65.4525C65.4125 23.8467 65.2125 23.4533 64.8525 23.16C64.4925 22.8667 64.0058 22.72 63.3925 22.72C62.7925 22.72 62.3325 22.8333 62.0125 23.06C61.6925 23.2867 61.5325 23.5867 61.5325 23.96C61.5325 24.2533 61.6391 24.5 61.8525 24.7C62.0658 24.9 62.3258 25.06 62.6325 25.18C62.9391 25.2867 63.3925 25.4267 63.9925 25.6C64.7925 25.8133 65.4458 26.0333 65.9525 26.26C66.4725 26.4733 66.9191 26.7933 67.2925 27.22C67.6658 27.6467 67.8591 28.2133 67.8725 28.92C67.8725 29.5467 67.6991 30.1067 67.3525 30.6C67.0058 31.0933 66.5125 31.48 65.8725 31.76C65.2458 32.04 64.5058 32.18 63.6525 32.18ZM72.9961 22.84V28.94C72.9961 29.3533 73.0894 29.6533 73.2761 29.84C73.4761 30.0133 73.8094 30.1 74.2761 30.1H75.6761V32H73.8761C72.8494 32 72.0627 31.76 71.5161 31.28C70.9694 30.8 70.6961 30.02 70.6961 28.94V22.84H69.3961V20.98H70.6961V18.24H72.9961V20.98H75.6761V22.84H72.9961ZM77.0175 26.44C77.0175 25.3333 77.2441 24.3533 77.6975 23.5C78.1641 22.6467 78.7908 21.9867 79.5775 21.52C80.3775 21.04 81.2575 20.8 82.2175 20.8C83.0841 20.8 83.8375 20.9733 84.4775 21.32C85.1308 21.6533 85.6508 22.0733 86.0375 22.58V20.98H88.3375V32H86.0375V30.36C85.6508 30.88 85.1241 31.3133 84.4575 31.66C83.7908 32.0067 83.0308 32.18 82.1775 32.18C81.2308 32.18 80.3641 31.94 79.5775 31.46C78.7908 30.9667 78.1641 30.2867 77.6975 29.42C77.2441 28.54 77.0175 27.5467 77.0175 26.44ZM86.0375 26.48C86.0375 25.72 85.8775 25.06 85.5575 24.5C85.2508 23.94 84.8441 23.5133 84.3375 23.22C83.8308 22.9267 83.2841 22.78 82.6975 22.78C82.1108 22.78 81.5641 22.9267 81.0575 23.22C80.5508 23.5 80.1375 23.92 79.8175 24.48C79.5108 25.0267 79.3575 25.68 79.3575 26.44C79.3575 27.2 79.5108 27.8667 79.8175 28.44C80.1375 29.0133 80.5508 29.4533 81.0575 29.76C81.5775 30.0533 82.1241 30.2 82.6975 30.2C83.2841 30.2 83.8308 30.0533 84.3375 29.76C84.8441 29.4667 85.2508 29.04 85.5575 28.48C85.8775 27.9067 86.0375 27.24 86.0375 26.48ZM101.392 22.1C101.032 21.4067 100.532 20.8867 99.8922 20.54C99.2522 20.18 98.5122 20 97.6722 20C96.7522 20 95.9322 20.2067 95.2122 20.62C94.4922 21.0333 93.9255 21.62 93.5122 22.38C93.1122 23.14 92.9122 24.02 92.9122 25.02C92.9122 26.02 93.1122 26.9067 93.5122 27.68C93.9255 28.44 94.4922 29.0267 95.2122 29.44C95.9322 29.8533 96.7522 30.06 97.6722 30.06C98.9122 30.06 99.9188 29.7133 100.692 29.02C101.465 28.3267 101.939 27.3867 102.112 26.2H96.8922V24.38H104.552V26.16C104.405 27.24 104.019 28.2333 103.392 29.14C102.779 30.0467 101.972 30.7733 100.972 31.32C99.9855 31.8533 98.8855 32.12 97.6722 32.12C96.3655 32.12 95.1722 31.82 94.0922 31.22C93.0122 30.6067 92.1522 29.76 91.5122 28.68C90.8855 27.6 90.5722 26.38 90.5722 25.02C90.5722 23.66 90.8855 22.44 91.5122 21.36C92.1522 20.28 93.0122 19.44 94.0922 18.84C95.1855 18.2267 96.3788 17.92 97.6722 17.92C99.1522 17.92 100.465 18.2867 101.612 19.02C102.772 19.74 103.612 20.7667 104.132 22.1H101.392ZM109.081 22.58C109.414 22.02 109.854 21.5867 110.401 21.28C110.961 20.96 111.621 20.8 112.381 20.8V23.16H111.801C110.908 23.16 110.228 23.3867 109.761 23.84C109.308 24.2933 109.081 25.08 109.081 26.2V32H106.801V20.98H109.081V22.58ZM119.257 32.18C118.217 32.18 117.277 31.9467 116.437 31.48C115.597 31 114.937 30.3333 114.457 29.48C113.977 28.6133 113.737 27.6133 113.737 26.48C113.737 25.36 113.983 24.3667 114.477 23.5C114.97 22.6333 115.643 21.9667 116.497 21.5C117.35 21.0333 118.303 20.8 119.357 20.8C120.41 20.8 121.363 21.0333 122.217 21.5C123.07 21.9667 123.743 22.6333 124.237 23.5C124.73 24.3667 124.977 25.36 124.977 26.48C124.977 27.6 124.723 28.5933 124.217 29.46C123.71 30.3267 123.017 31 122.137 31.48C121.27 31.9467 120.31 32.18 119.257 32.18ZM119.257 30.2C119.843 30.2 120.39 30.06 120.897 29.78C121.417 29.5 121.837 29.08 122.157 28.52C122.477 27.96 122.637 27.28 122.637 26.48C122.637 25.68 122.483 25.0067 122.177 24.46C121.87 23.9 121.463 23.48 120.957 23.2C120.45 22.92 119.903 22.78 119.317 22.78C118.73 22.78 118.183 22.92 117.677 23.2C117.183 23.48 116.79 23.9 116.497 24.46C116.203 25.0067 116.057 25.68 116.057 26.48C116.057 27.6667 116.357 28.5867 116.957 29.24C117.57 29.88 118.337 30.2 119.257 30.2ZM142.031 20.98L138.611 32H136.211L133.991 23.86L131.771 32H129.371L125.931 20.98H128.251L130.551 29.84L132.891 20.98H135.271L137.511 29.8L139.791 20.98H142.031ZM146.394 22.84V28.94C146.394 29.3533 146.488 29.6533 146.674 29.84C146.874 30.0133 147.208 30.1 147.674 30.1H149.074V32H147.274C146.248 32 145.461 31.76 144.914 31.28C144.368 30.8 144.094 30.02 144.094 28.94V22.84H142.794V20.98H144.094V18.24H146.394V20.98H149.074V22.84H146.394ZM156.876 20.8C157.716 20.8 158.463 20.98 159.116 21.34C159.783 21.7 160.303 22.2333 160.676 22.94C161.063 23.6467 161.256 24.5 161.256 25.5V32H158.996V25.84C158.996 24.8533 158.749 24.1 158.256 23.58C157.763 23.0467 157.089 22.78 156.236 22.78C155.383 22.78 154.703 23.0467 154.196 23.58C153.703 24.1 153.456 24.8533 153.456 25.84V32H151.176V17.2H153.456V22.26C153.843 21.7933 154.329 21.4333 154.916 21.18C155.516 20.9267 156.169 20.8 156.876 20.8ZM165.084 32.14C164.671 32.14 164.324 32 164.044 31.72C163.764 31.44 163.624 31.0933 163.624 30.68C163.624 30.2667 163.764 29.92 164.044 29.64C164.324 29.36 164.671 29.22 165.084 29.22C165.484 29.22 165.824 29.36 166.104 29.64C166.384 29.92 166.524 30.2667 166.524 30.68C166.524 31.0933 166.384 31.44 166.104 31.72C165.824 32 165.484 32.14 165.084 32.14ZM168.228 26.44C168.228 25.3333 168.455 24.3533 168.908 23.5C169.375 22.6467 170.002 21.9867 170.788 21.52C171.588 21.04 172.475 20.8 173.448 20.8C174.168 20.8 174.875 20.96 175.568 21.28C176.275 21.5867 176.835 22 177.248 22.52V17.2H179.548V32H177.248V30.34C176.875 30.8733 176.355 31.3133 175.688 31.66C175.035 32.0067 174.282 32.18 173.428 32.18C172.468 32.18 171.588 31.94 170.788 31.46C170.002 30.9667 169.375 30.2867 168.908 29.42C168.455 28.54 168.228 27.5467 168.228 26.44ZM177.248 26.48C177.248 25.72 177.088 25.06 176.768 24.5C176.462 23.94 176.055 23.5133 175.548 23.22C175.042 22.9267 174.495 22.78 173.908 22.78C173.322 22.78 172.775 22.9267 172.268 23.22C171.762 23.5 171.348 23.92 171.028 24.48C170.722 25.0267 170.568 25.68 170.568 26.44C170.568 27.2 170.722 27.8667 171.028 28.44C171.348 29.0133 171.762 29.4533 172.268 29.76C172.788 30.0533 173.335 30.2 173.908 30.2C174.495 30.2 175.042 30.0533 175.548 29.76C176.055 29.4667 176.462 29.04 176.768 28.48C177.088 27.9067 177.248 27.24 177.248 26.48ZM195.883 20.8C196.75 20.8 197.523 20.98 198.203 21.34C198.896 21.7 199.436 22.2333 199.823 22.94C200.223 23.6467 200.423 24.5 200.423 25.5V32H198.163V25.84C198.163 24.8533 197.916 24.1 197.423 23.58C196.93 23.0467 196.256 22.78 195.403 22.78C194.55 22.78 193.87 23.0467 193.363 23.58C192.87 24.1 192.623 24.8533 192.623 25.84V32H190.363V25.84C190.363 24.8533 190.116 24.1 189.623 23.58C189.13 23.0467 188.456 22.78 187.603 22.78C186.75 22.78 186.07 23.0467 185.563 23.58C185.07 24.1 184.823 24.8533 184.823 25.84V32H182.543V20.98H184.823V22.24C185.196 21.7867 185.67 21.4333 186.243 21.18C186.816 20.9267 187.43 20.8 188.083 20.8C188.963 20.8 189.75 20.9867 190.443 21.36C191.136 21.7333 191.67 22.2733 192.043 22.98C192.376 22.3133 192.896 21.7867 193.603 21.4C194.31 21 195.07 20.8 195.883 20.8Z" fill="white"/>
<defs>
<clipPath id="clip0_53_17442">
<rect width="24" height="24" fill="white" transform="translate(0.602661 16.2725) rotate(-16)"/>
</clipPath>
<clipPath id="clip1_53_17442">
<rect width="24" height="24" fill="white" transform="translate(3.55408 12.3923) rotate(0.516492)"/>
</clipPath>
</defs>
</svg>
