<svg width="18" height="16" viewBox="0 0 18 16" fill="none" xmlns="http://www.w3.org/2000/svg">
<path fill-rule="evenodd" clip-rule="evenodd" d="M9.92021 1.48086L11.4431 4.52315C11.5923 4.82182 11.8804 5.02892 12.2145 5.07684L15.6211 5.5672C16.4628 5.68872 16.7977 6.70881 16.1886 7.2933L13.7252 9.66039C13.4831 9.89316 13.3729 10.2278 13.4301 10.5564L14.0115 13.8982C14.1547 14.7249 13.2748 15.3556 12.5225 14.9645L9.47768 13.3856C9.17918 13.2307 8.82168 13.2307 8.52232 13.3856L5.4775 14.9645C4.72519 15.3556 3.84533 14.7249 3.98937 13.8982L4.56987 10.5564C4.62714 10.2278 4.51694 9.89316 4.27485 9.66039L1.8114 7.2933C1.20226 6.70881 1.5372 5.68872 2.37889 5.5672L5.78554 5.07684C6.11961 5.02892 6.40856 4.82182 6.55781 4.52315L8.07979 1.48086C8.45638 0.72863 9.54362 0.72863 9.92021 1.48086Z" stroke="white" stroke-width="1.5" stroke-linecap="round" stroke-linejoin="round"/>
</svg>
