<svg width="19" height="18" viewBox="0 0 19 18" fill="none" xmlns="http://www.w3.org/2000/svg">
<path d="M5.24996 2.33333C5.7102 2.33333 6.08329 1.96023 6.08329 1.5C6.08329 1.03976 5.7102 0.666664 5.24996 0.666664H3.99996C2.15901 0.666664 0.666626 2.15905 0.666626 4V14C0.666626 15.8409 2.15901 17.3333 3.99996 17.3333H5.24996C5.7102 17.3333 6.08329 16.9602 6.08329 16.5C6.08329 16.0398 5.7102 15.6667 5.24996 15.6667H3.99996C3.07949 15.6667 2.33329 14.9205 2.33329 14L2.33329 4C2.33329 3.07952 3.07949 2.33333 3.99996 2.33333H5.24996Z" fill="white"/>
<path d="M17.9225 9.58925C18.248 9.26382 18.248 8.73618 17.9225 8.41074L14.5892 5.07741C14.2638 4.75197 13.7361 4.75197 13.4107 5.07741C13.0853 5.40285 13.0853 5.93048 13.4107 6.25592L15.3214 8.16666L5.66663 8.16666C5.20639 8.16666 4.83329 8.53976 4.83329 9C4.83329 9.46023 5.20639 9.83333 5.66663 9.83333L15.3214 9.83333L13.4107 11.7441C13.0853 12.0695 13.0853 12.5972 13.4107 12.9226C13.7361 13.248 14.2638 13.248 14.5892 12.9226L17.9225 9.58925Z" fill="white"/>
</svg>
