<svg width="20" height="20" viewBox="0 0 20 20" fill="none" xmlns="http://www.w3.org/2000/svg">
<path d="M9.57675 2.32416H6.46091C3.89841 2.32416 2.29175 4.13832 2.29175 6.70666V13.635C2.29175 16.2033 3.89091 18.0175 6.46091 18.0175H13.8142C16.3851 18.0175 17.9842 16.2033 17.9842 13.635V10.2783" stroke="#130F26" stroke-width="1.25" stroke-linecap="round" stroke-linejoin="round"/>
<path fill-rule="evenodd" clip-rule="evenodd" d="M7.35628 9.10074L13.5838 2.87324C14.3596 2.09824 15.6171 2.09824 16.3929 2.87324L17.4071 3.88741C18.1829 4.66324 18.1829 5.92158 17.4071 6.69658L11.1496 12.9541C10.8104 13.2932 10.3504 13.4841 9.87045 13.4841H6.74878L6.82711 10.3341C6.83878 9.87074 7.02795 9.42908 7.35628 9.10074Z" stroke="#130F26" stroke-width="1.25" stroke-linecap="round" stroke-linejoin="round"/>
<path d="M12.6375 3.83545L16.4425 7.64045" stroke="#130F26" stroke-width="1.25" stroke-linecap="round" stroke-linejoin="round"/>
</svg>
