<svg width="20" height="20" viewBox="0 0 20 20" fill="none" xmlns="http://www.w3.org/2000/svg">
<path d="M10 1.66504C14.6034 1.66504 18.335 5.39671 18.335 10C18.335 14.6025 14.6034 18.3334 10 18.3334C5.39671 18.3342 1.66504 14.6025 1.66504 10C1.66504 5.39671 5.39671 1.66504 10 1.66504ZM10 2.91504C9.06321 2.90488 8.13367 3.08062 7.26522 3.4321C6.39677 3.78358 5.60665 4.30381 4.94059 4.96268C4.27453 5.62155 3.74576 6.40598 3.38489 7.27057C3.02402 8.13516 2.8382 9.06274 2.8382 9.99962C2.8382 10.9365 3.02402 11.8641 3.38489 12.7287C3.74576 13.5933 4.27453 14.3777 4.94059 15.0366C5.60665 15.6954 6.39677 16.2157 7.26522 16.5671C8.13367 16.9186 9.06321 17.0944 10 17.0842C11.8657 17.064 13.648 16.3087 14.9601 14.9822C16.2723 13.6558 17.0082 11.8654 17.0082 9.99962C17.0082 8.13387 16.2723 6.34343 14.9601 5.01701C13.648 3.69059 11.8657 2.93527 10 2.91504ZM7.05171 12.3192C7.40246 12.7657 7.85017 13.1265 8.36097 13.3744C8.87177 13.6223 9.43227 13.7508 10 13.75C10.5672 13.7507 11.1271 13.6225 11.6374 13.3751C12.1478 13.1276 12.5952 12.7674 12.9459 12.3217C12.9968 12.2573 13.0598 12.2036 13.1315 12.1635C13.2032 12.1235 13.282 12.098 13.3635 12.0884C13.445 12.0789 13.5276 12.0855 13.6066 12.1078C13.6856 12.1302 13.7594 12.1679 13.8238 12.2188C13.8882 12.2697 13.9419 12.3328 13.982 12.4044C14.022 12.4761 14.0475 12.5549 14.0571 12.6364C14.0666 12.718 14.06 12.8006 14.0377 12.8795C14.0153 12.9585 13.9776 13.0323 13.9267 13.0967C13.459 13.6906 12.8626 14.1705 12.1824 14.5002C11.5022 14.8299 10.7559 15.0008 10 15C9.24303 15.0008 8.49576 14.8294 7.81476 14.4988C7.13376 14.1681 6.53686 13.687 6.06921 13.0917C6.01843 13.0272 5.98085 12.9533 5.95863 12.8743C5.9364 12.7952 5.92996 12.7126 5.93967 12.6311C5.94939 12.5496 5.97506 12.4708 6.01523 12.3992C6.0554 12.3276 6.10928 12.2646 6.17379 12.2138C6.2383 12.163 6.31218 12.1254 6.39122 12.1032C6.47025 12.081 6.55289 12.0745 6.63441 12.0843C6.71593 12.094 6.79474 12.1196 6.86634 12.1598C6.93794 12.2 7.00093 12.2539 7.05171 12.3184M7.50004 7.29171C7.63926 7.28777 7.77785 7.31179 7.90762 7.36234C8.0374 7.4129 8.15571 7.48896 8.25558 7.58604C8.35544 7.68312 8.43482 7.79924 8.48903 7.92753C8.54324 8.05582 8.57117 8.19368 8.57117 8.33296C8.57117 8.47223 8.54324 8.61009 8.48903 8.73838C8.43482 8.86667 8.35544 8.98279 8.25558 9.07987C8.15571 9.17695 8.0374 9.25301 7.90762 9.30357C7.77785 9.35413 7.63926 9.37814 7.50004 9.37421C7.22898 9.36654 6.9716 9.25347 6.78259 9.05904C6.59357 8.8646 6.48783 8.60412 6.48783 8.33296C6.48783 8.06179 6.59357 7.80131 6.78259 7.60688C6.9716 7.41244 7.22898 7.29938 7.50004 7.29171ZM12.5 7.29171C12.6393 7.28777 12.7779 7.31179 12.9076 7.36234C13.0374 7.4129 13.1557 7.48896 13.2556 7.58604C13.3554 7.68312 13.4348 7.79924 13.489 7.92753C13.5432 8.05582 13.5712 8.19368 13.5712 8.33296C13.5712 8.47223 13.5432 8.61009 13.489 8.73838C13.4348 8.86667 13.3554 8.98279 13.2556 9.07987C13.1557 9.17695 13.0374 9.25301 12.9076 9.30357C12.7779 9.35413 12.6393 9.37814 12.5 9.37421C12.229 9.36654 11.9716 9.25347 11.7826 9.05904C11.5936 8.8646 11.4878 8.60412 11.4878 8.33296C11.4878 8.06179 11.5936 7.80131 11.7826 7.60688C11.9716 7.41244 12.229 7.29938 12.5 7.29171Z" fill="black"/>
</svg>
