<svg width="18" height="12" viewBox="0 0 18 12" fill="none" xmlns="http://www.w3.org/2000/svg">
<path d="M2.57879 8.65232C2.81683 9.04621 2.69049 9.5585 2.29659 9.79654C1.9027 10.0346 1.39041 9.90824 1.15237 9.51435C0.813951 8.95437 0.584347 8.47181 0.449336 8.16031C0.256012 7.71426 0.284063 7.21207 0.519581 6.7915C0.878967 6.14973 1.78685 4.66611 3.18604 3.33307C4.58202 2.00308 6.54629 0.75 8.9997 0.75C11.4531 0.75 13.4174 2.00308 14.8134 3.33307C16.2125 4.66611 17.1204 6.14973 17.4798 6.7915C17.7153 7.21207 17.7434 7.71426 17.5501 8.1603C17.4151 8.47181 17.1855 8.95437 16.847 9.51435C16.609 9.90824 16.0967 10.0346 15.7028 9.79654C15.3089 9.5585 15.1826 9.04621 15.4206 8.65232C15.6928 8.20192 15.8817 7.81241 15.9962 7.55369C15.6581 6.95778 14.8573 5.67693 13.6637 4.53975C12.4308 3.36513 10.858 2.41667 8.9997 2.41667C7.14141 2.41667 5.56858 3.36513 4.33569 4.53975C3.14208 5.67693 2.34129 6.95778 2.00316 7.55369C2.11772 7.81241 2.3066 8.20192 2.57879 8.65232Z" fill="#667185"/>
<path fill-rule="evenodd" clip-rule="evenodd" d="M8.9997 3.66667C6.69851 3.66667 4.83303 5.53215 4.83303 7.83333C4.83303 10.1345 6.69851 12 8.9997 12C11.3009 12 13.1664 10.1345 13.1664 7.83333C13.1664 5.53215 11.3009 3.66667 8.9997 3.66667ZM6.4997 7.83333C6.4997 6.45262 7.61899 5.33333 8.9997 5.33333C10.3804 5.33333 11.4997 6.45262 11.4997 7.83333C11.4997 9.21405 10.3804 10.3333 8.9997 10.3333C7.61899 10.3333 6.4997 9.21405 6.4997 7.83333Z" fill="#667185"/>
</svg>
