<svg width="36" height="36" viewBox="0 0 36 36" fill="none" xmlns="http://www.w3.org/2000/svg">
<path d="M19.5 22.5C19.5 21.6716 18.8284 21 18 21C17.1716 21 16.5 21.6716 16.5 22.5V25.5C16.5 26.3284 17.1716 27 18 27C18.8284 27 19.5 26.3284 19.5 25.5V22.5Z" fill="#0B85F6"/>
<path fill-rule="evenodd" clip-rule="evenodd" d="M27 10.5C27 5.52944 22.9706 1.5 18 1.5C13.0294 1.5 9 5.52944 9 10.5V13.5C5.68629 13.5 3 16.1863 3 19.5V28.5C3 31.8137 5.68629 34.5 9 34.5H27C30.3137 34.5 33 31.8137 33 28.5V19.5C33 16.1863 30.3137 13.5 27 13.5V10.5ZM12 10.5C12 7.18629 14.6863 4.5 18 4.5C21.3137 4.5 24 7.18629 24 10.5V13.5H12V10.5ZM6 19.5C6 17.8431 7.34315 16.5 9 16.5H27C28.6569 16.5 30 17.8431 30 19.5V28.5C30 30.1569 28.6569 31.5 27 31.5H9C7.34315 31.5 6 30.1569 6 28.5V19.5Z" fill="#0B85F6"/>
</svg>
