<svg width="18" height="14" viewBox="0 0 18 14" fill="none" xmlns="http://www.w3.org/2000/svg">
<path d="M3.16675 0.333252H14.8334C16.2141 0.333252 17.3333 1.45242 17.3334 2.83303C17.2303 2.833 17.1255 2.85223 17.0239 2.89285L9.61907 5.8548C9.22171 6.01374 8.77845 6.01374 8.3811 5.8548L0.97624 2.89285C0.87467 2.85223 0.769842 2.833 0.666748 2.83303C0.666868 1.45242 1.78611 0.333252 3.16675 0.333252Z" fill="#882FE6"/>
<path d="M0.666748 4.56411V11.1666C0.666748 12.5473 1.78604 13.6666 3.16675 13.6666H14.8334C16.2141 13.6666 17.3334 12.5473 17.3334 11.1666V4.56411L10.2381 7.40226C9.44335 7.72014 8.55682 7.72014 7.76211 7.40226L0.666748 4.56411Z" fill="#882FE6"/>
</svg>
