<svg width="16" height="19" viewBox="0 0 16 19" fill="none" xmlns="http://www.w3.org/2000/svg">
<path fill-rule="evenodd" clip-rule="evenodd" d="M3 8.33337V5.83337C3 3.07195 5.23858 0.833374 8 0.833374C10.7614 0.833374 13 3.07195 13 5.83337V8.33337C14.3807 8.33337 15.5 9.45266 15.5 10.8334V15.8334C15.5 17.2141 14.3807 18.3334 13 18.3334H3C1.61929 18.3334 0.5 17.2141 0.5 15.8334V10.8334C0.5 9.45266 1.61929 8.33337 3 8.33337ZM4.66667 5.83337C4.66667 3.99242 6.15905 2.50004 8 2.50004C9.84095 2.50004 11.3333 3.99242 11.3333 5.83337V8.33337H4.66667V5.83337ZM8 11.6667C8.46024 11.6667 8.83333 12.0398 8.83333 12.5V14.1667C8.83333 14.6269 8.46024 15 8 15C7.53976 15 7.16667 14.6269 7.16667 14.1667V12.5C7.16667 12.0398 7.53976 11.6667 8 11.6667Z" fill="#882FE6"/>
</svg>
