<svg width="18" height="19" viewBox="0 0 18 19" fill="none" xmlns="http://www.w3.org/2000/svg">
<path fill-rule="evenodd" clip-rule="evenodd" d="M5.66663 0.833344C6.12686 0.833344 6.49996 1.20644 6.49996 1.66668V2.50001H11.5V1.66668C11.5 1.20644 11.8731 0.833344 12.3333 0.833344C12.7935 0.833344 13.1666 1.20644 13.1666 1.66668V2.50001H14C15.8409 2.50001 17.3333 3.99239 17.3333 5.83334V15C17.3333 16.841 15.8409 18.3333 14 18.3333H3.99996C2.15901 18.3333 0.666626 16.841 0.666626 15V5.83334C0.666626 3.99239 2.15901 2.50001 3.99996 2.50001H4.83329V1.66668C4.83329 1.20644 5.20639 0.833344 5.66663 0.833344ZM11.5 4.16668C11.5 4.62691 11.8731 5.00001 12.3333 5.00001C12.7935 5.00001 13.1666 4.62691 13.1666 4.16668H14C14.9204 4.16668 15.6666 4.91287 15.6666 5.83334V6.25001H2.33329V5.83334C2.33329 4.91287 3.07948 4.16668 3.99996 4.16668H4.83329C4.83329 4.62691 5.20639 5.00001 5.66663 5.00001C6.12686 5.00001 6.49996 4.62691 6.49996 4.16668H11.5ZM15.6666 7.91668H2.33329V15C2.33329 15.9205 3.07948 16.6667 3.99996 16.6667H14C14.9204 16.6667 15.6666 15.9205 15.6666 15V7.91668Z" fill="white"/>
</svg>
