<svg width="18" height="18" viewBox="0 0 18 18" fill="none" xmlns="http://www.w3.org/2000/svg">
<path fill-rule="evenodd" clip-rule="evenodd" d="M8.58329 0.666687C4.21104 0.666687 0.666626 4.2111 0.666626 8.58335C0.666626 12.9556 4.21104 16.5 8.58329 16.5C10.4692 16.5 12.2012 15.8405 13.5611 14.7396L15.9107 17.0893C16.2361 17.4147 16.7638 17.4147 17.0892 17.0893C17.4147 16.7638 17.4147 16.2362 17.0892 15.9108L14.7396 13.5611C15.8405 12.2012 16.5 10.4693 16.5 8.58335C16.5 4.2111 12.9555 0.666687 8.58329 0.666687ZM2.33329 8.58335C2.33329 5.13157 5.13151 2.33335 8.58329 2.33335C12.0351 2.33335 14.8333 5.13157 14.8333 8.58335C14.8333 12.0351 12.0351 14.8334 8.58329 14.8334C5.13151 14.8334 2.33329 12.0351 2.33329 8.58335Z" fill="#1C1C1C"/>
</svg>
