<svg width="18" height="18" viewBox="0 0 18 18" fill="none" xmlns="http://www.w3.org/2000/svg">
<path fill-rule="evenodd" clip-rule="evenodd" d="M16.3389 5.35298L15.8202 4.4529C15.3814 3.6913 14.409 3.42856 13.6463 3.86556V3.86556C13.2833 4.07942 12.8501 4.14009 12.4423 4.0342C12.0345 3.92832 11.6855 3.66456 11.4724 3.30111C11.3353 3.07009 11.2616 2.80696 11.2588 2.53833V2.53833C11.2712 2.10765 11.1087 1.6903 10.8084 1.38136C10.5081 1.07241 10.0955 0.898184 9.66463 0.898361H8.61962C8.19751 0.898356 7.7928 1.06656 7.49504 1.36575C7.19728 1.66494 7.03102 2.07046 7.03305 2.49256V2.49256C7.02054 3.36407 6.31044 4.06397 5.43885 4.06388C5.17022 4.06109 4.90709 3.98742 4.67607 3.85031V3.85031C3.91343 3.41331 2.94097 3.67604 2.50216 4.43764L1.94533 5.35298C1.50705 6.11363 1.76621 7.08547 2.52504 7.52689V7.52689C3.01829 7.81167 3.32215 8.33796 3.32215 8.90751C3.32215 9.47707 3.01829 10.0034 2.52504 10.2881V10.2881C1.76717 10.7266 1.50773 11.6961 1.94533 12.4544V12.4544L2.47165 13.3621C2.67725 13.7331 3.02221 14.0069 3.4302 14.1228C3.83819 14.2388 4.27557 14.1874 4.64556 13.98V13.98C5.00927 13.7677 5.4427 13.7096 5.84949 13.8185C6.25628 13.9273 6.60274 14.1942 6.81184 14.5597C6.94896 14.7907 7.02263 15.0538 7.02542 15.3225V15.3225C7.02542 16.2029 7.73917 16.9167 8.61962 16.9167H9.66463C10.5421 16.9167 11.2546 16.2076 11.2588 15.3301V15.3301C11.2568 14.9067 11.4241 14.5 11.7235 14.2006C12.0229 13.9012 12.4296 13.7339 12.853 13.7359C13.121 13.7431 13.3831 13.8164 13.6158 13.9495V13.9495C14.3765 14.3877 15.3483 14.1286 15.7897 13.3698V13.3698L16.3389 12.4544C16.5515 12.0895 16.6098 11.655 16.501 11.2469C16.3922 10.8389 16.1252 10.4911 15.7592 10.2805V10.2805C15.3932 10.0699 15.1262 9.72211 15.0174 9.31408C14.9086 8.90605 14.9669 8.47148 15.1795 8.1066C15.3177 7.86524 15.5179 7.66513 15.7592 7.52689V7.52689C16.5135 7.08571 16.772 6.11954 16.3389 5.3606V5.3606V5.35298Z" stroke="white" stroke-width="1.5" stroke-linecap="round" stroke-linejoin="round"/>
<ellipse cx="9.14589" cy="8.90752" rx="2.1968" ry="2.1968" stroke="white" stroke-width="1.5" stroke-linecap="round" stroke-linejoin="round"/>
</svg>
