<svg width="172" height="172" viewBox="0 0 172 172" fill="none" xmlns="http://www.w3.org/2000/svg">
<path d="M76.7808 3.96925C82.075 -0.60718 89.925 -0.60718 95.2192 3.96925C98.9751 7.21594 104.162 8.24766 108.874 6.68544C115.517 4.48338 122.769 7.48742 125.909 13.7415C128.137 18.1784 132.534 21.1165 137.486 21.4766C144.465 21.9841 150.016 27.5348 150.523 34.5144C150.884 39.466 153.822 43.8632 158.258 46.0908C164.513 49.2307 167.517 56.4831 165.315 63.1256C163.752 67.8381 164.784 73.0249 168.031 76.7808C172.607 82.075 172.607 89.925 168.031 95.2192C164.784 98.9751 163.752 104.162 165.315 108.874C167.517 115.517 164.513 122.769 158.258 125.909C153.822 128.137 150.884 132.534 150.523 137.486C150.016 144.465 144.465 150.016 137.486 150.523C132.534 150.884 128.137 153.822 125.909 158.258C122.769 164.513 115.517 167.517 108.874 165.315C104.162 163.752 98.9751 164.784 95.2192 168.031C89.925 172.607 82.075 172.607 76.7808 168.031C73.0249 164.784 67.8381 163.752 63.1256 165.315C56.4831 167.517 49.2307 164.513 46.0908 158.258C43.8632 153.822 39.466 150.884 34.5144 150.523C27.5348 150.016 21.9841 144.465 21.4766 137.486C21.1165 132.534 18.1784 128.137 13.7415 125.909C7.48742 122.769 4.48338 115.517 6.68544 108.874C8.24766 104.162 7.21594 98.9751 3.96925 95.2192C-0.60718 89.925 -0.60718 82.075 3.96925 76.7808C7.21594 73.0249 8.24766 67.8381 6.68544 63.1256C4.48338 56.4831 7.48742 49.2307 13.7415 46.0908C18.1784 43.8632 21.1165 39.466 21.4766 34.5145C21.9841 27.5348 27.5348 21.9841 34.5145 21.4766C39.466 21.1165 43.8632 18.1784 46.0908 13.7415C49.2307 7.48742 56.4831 4.48338 63.1256 6.68544C67.8381 8.24766 73.0249 7.21594 76.7808 3.96925Z" fill="#823BDB"/>
</svg>
